HIERARCHY
ROOT Root
{
  OFFSET 0.0 0.0 0.0
  CHANNELS 6 Xposition Yposition Zposition Zrotation Yrotation Xrotation
  JOINT Hips
  {
    OFFSET 0.0 100.0 0.0
    CHANNELS 6 Xposition Yposition Zposition Zrotation Yrotation Xrotation
    JOINT Spine1
    {
      OFFSET 5.003913 -0.037094 -0.013727
      CHANNELS 3 Zrotation Yrotation Xrotation
      JOINT Spine2
      {
        OFFSET 7.125363 -1e-06 0.0
        CHANNELS 3 Zrotation Yrotation Xrotation
        JOINT Chest
        {
          OFFSET 7.594027 1e-06 0.0
          CHANNELS 3 Zrotation Yrotation Xrotation
          JOINT Neck1
          {
            OFFSET 26.313086 -0.460272 -0.181672
            CHANNELS 3 Zrotation Yrotation Xrotation
            JOINT Neck2
            {
              OFFSET 8.045911 0.0 0.0
              CHANNELS 3 Zrotation Yrotation Xrotation
              JOINT Head
              {
                OFFSET 6.432774 0.0 0.0
                CHANNELS 3 Zrotation Yrotation Xrotation
                JOINT HeadEnd
                {
                  OFFSET 16.169773 0.06451 0.00362
                  CHANNELS 3 Zrotation Yrotation Xrotation
                }
                JOINT Jaw
                {
                  OFFSET 0.108741 3.12938 0.002639
                  CHANNELS 3 Zrotation Yrotation Xrotation
                }
                JOINT LeftEye
                {
                  OFFSET 4.45173 8.166359 3.206392
                  CHANNELS 3 Zrotation Yrotation Xrotation
                }
                JOINT RightEye
                {
                  OFFSET 4.436895 8.135758 -3.222429
                  CHANNELS 3 Zrotation Yrotation Xrotation
                }
              }
            }
          }
          JOINT LeftShoulder
          {
            OFFSET 23.218927 5.195579 1.621656
            CHANNELS 3 Zrotation Yrotation Xrotation
            JOINT LeftArm
            {
              OFFSET 15.902118 2e-06 -2e-06
              CHANNELS 3 Zrotation Yrotation Xrotation
              JOINT LeftForeArm
              {
                OFFSET 28.739307 0.0 -1e-06
                CHANNELS 3 Zrotation Yrotation Xrotation
                JOINT LeftHand
                {
                  OFFSET 27.093981 -4e-06 0.0
                  CHANNELS 3 Zrotation Yrotation Xrotation
                  JOINT LeftHandThumb1
                  {
                    OFFSET 2.276781 3.380274 0.83384
                    CHANNELS 3 Zrotation Yrotation Xrotation
                    JOINT LeftHandThumb2
                    {
                      OFFSET 4.705309 -1e-06 -1e-06
                      CHANNELS 3 Zrotation Yrotation Xrotation
                      JOINT LeftHandThumb3
                      {
                        OFFSET 2.798515 0.0 3e-06
                        CHANNELS 3 Zrotation Yrotation Xrotation
                        JOINT LeftHandThumbEnd
                        {
                          OFFSET 3.180793 4e-06 -4e-06
                          CHANNELS 3 Zrotation Yrotation Xrotation
                        }
                      }
                    }
                  }
                  JOINT LeftHandIndex1
                  {
                    OFFSET 3.247786 2.352677 0.137192
                    CHANNELS 3 Zrotation Yrotation Xrotation
                    JOINT LeftHandIndex2
                    {
                      OFFSET 6.367095 1e-06 0.0
                      CHANNELS 3 Zrotation Yrotation Xrotation
                      JOINT LeftHandIndex3
                      {
                        OFFSET 3.662364 0.0 0.0
                        CHANNELS 3 Zrotation Yrotation Xrotation
                        JOINT LeftHandIndex4
                        {
                          OFFSET 2.329242 4e-06 -4e-06
                          CHANNELS 3 Zrotation Yrotation Xrotation
                          JOINT LeftHandIndexEnd
                          {
                            OFFSET 2.767823 1e-06 0.0
                            CHANNELS 3 Zrotation Yrotation Xrotation
                          }
                        }
                      }
                    }
                  }
                  JOINT LeftHandMiddle1
                  {
                    OFFSET 3.163612 0.945023 -0.406112
                    CHANNELS 3 Zrotation Yrotation Xrotation
                    JOINT LeftHandMiddle2
                    {
                      OFFSET 6.276789 3e-06 0.0
                      CHANNELS 3 Zrotation Yrotation Xrotation
                      JOINT LeftHandMiddle3
                      {
                        OFFSET 4.35652 -1e-06 4e-06
                        CHANNELS 3 Zrotation Yrotation Xrotation
                        JOINT LeftHandMiddle4
                        {
                          OFFSET 2.996877 0.0 8e-06
                          CHANNELS 3 Zrotation Yrotation Xrotation
                          JOINT LeftHandMiddleEnd
                          {
                            OFFSET 2.323256 3e-06 -4e-06
                            CHANNELS 3 Zrotation Yrotation Xrotation
                          }
                        }
                      }
                    }
                  }
                  JOINT LeftHandRing1
                  {
                    OFFSET 2.882606 -0.309162 0.107445
                    CHANNELS 3 Zrotation Yrotation Xrotation
                    JOINT LeftHandRing2
                    {
                      OFFSET 6.033198 0.0 4e-06
                      CHANNELS 3 Zrotation Yrotation Xrotation
                      JOINT LeftHandRing3
                      {
                        OFFSET 4.350578 3e-06 0.0
                        CHANNELS 3 Zrotation Yrotation Xrotation
                        JOINT LeftHandRing4
                        {
                          OFFSET 2.651321 2e-06 -7e-06
                          CHANNELS 3 Zrotation Yrotation Xrotation
                          JOINT LeftHandRingEnd
                          {
                            OFFSET 1.937663 1e-06 -4e-06
                            CHANNELS 3 Zrotation Yrotation Xrotation
                          }
                        }
                      }
                    }
                  }
                  JOINT LeftHandPinky1
                  {
                    OFFSET 2.865315 -1.525436 0.575687
                    CHANNELS 3 Zrotation Yrotation Xrotation
                    JOINT LeftHandPinky2
                    {
                      OFFSET 5.54936 1e-06 -8e-06
                      CHANNELS 3 Zrotation Yrotation Xrotation
                      JOINT LeftHandPinky3
                      {
                        OFFSET 3.070974 0.0 -4e-06
                        CHANNELS 3 Zrotation Yrotation Xrotation
                        JOINT LeftHandPinky4
                        {
                          OFFSET 1.549672 1e-06 0.0
                          CHANNELS 3 Zrotation Yrotation Xrotation
                          JOINT LeftHandPinkyEnd
                          {
                            OFFSET 1.952123 0.0 0.0
                            CHANNELS 3 Zrotation Yrotation Xrotation
                          }
                        }
                      }
                    }
                  }
                }
              }
            }
          }
          JOINT RightShoulder
          {
            OFFSET 23.161716 5.296122 -1.380114
            CHANNELS 3 Zrotation Yrotation Xrotation
            JOINT RightArm
            {
              OFFSET -16.027195 -2e-06 1.1e-05
              CHANNELS 3 Zrotation Yrotation Xrotation
              JOINT RightForeArm
              {
                OFFSET -28.736639 4e-06 2e-06
                CHANNELS 3 Zrotation Yrotation Xrotation
                JOINT RightHand
                {
                  OFFSET -27.133619 6e-06 0.0
                  CHANNELS 3 Zrotation Yrotation Xrotation
                  JOINT RightHandThumb1
                  {
                    OFFSET -2.274328 -3.351035 -0.83067
                    CHANNELS 3 Zrotation Yrotation Xrotation
                    JOINT RightHandThumb2
                    {
                      OFFSET -4.703594 -3e-06 2e-06
                      CHANNELS 3 Zrotation Yrotation Xrotation
                      JOINT RightHandThumb3
                      {
                        OFFSET -2.794935 -4e-06 -3e-06
                        CHANNELS 3 Zrotation Yrotation Xrotation
                        JOINT RightHandThumbEnd
                        {
                          OFFSET -3.183852 4e-06 1e-06
                          CHANNELS 3 Zrotation Yrotation Xrotation
                        }
                      }
                    }
                  }
                  JOINT RightHandIndex1
                  {
                    OFFSET -3.253496 -2.33755 -0.127667
                    CHANNELS 3 Zrotation Yrotation Xrotation
                    JOINT RightHandIndex2
                    {
                      OFFSET -6.344434 0.0 0.0
                      CHANNELS 3 Zrotation Yrotation Xrotation
                      JOINT RightHandIndex3
                      {
                        OFFSET -3.654871 0.0 -8e-06
                        CHANNELS 3 Zrotation Yrotation Xrotation
                        JOINT RightHandIndex4
                        {
                          OFFSET -2.327586 -1e-06 0.0
                          CHANNELS 3 Zrotation Yrotation Xrotation
                          JOINT RightHandIndexEnd
                          {
                            OFFSET -2.770001 3e-06 8e-06
                            CHANNELS 3 Zrotation Yrotation Xrotation
                          }
                        }
                      }
                    }
                  }
                  JOINT RightHandMiddle1
                  {
                    OFFSET -3.168223 -0.944764 0.411762
                    CHANNELS 3 Zrotation Yrotation Xrotation
                    JOINT RightHandMiddle2
                    {
                      OFFSET -6.266691 -1e-06 -4e-06
                      CHANNELS 3 Zrotation Yrotation Xrotation
                      JOINT RightHandMiddle3
                      {
                        OFFSET -4.348901 0.0 0.0
                        CHANNELS 3 Zrotation Yrotation Xrotation
                        JOINT RightHandMiddle4
                        {
                          OFFSET -3.00024 2e-06 -4e-06
                          CHANNELS 3 Zrotation Yrotation Xrotation
                          JOINT RightHandMiddleEnd
                          {
                            OFFSET -2.321477 -4e-06 -4e-06
                            CHANNELS 3 Zrotation Yrotation Xrotation
                          }
                        }
                      }
                    }
                  }
                  JOINT RightHandRing1
                  {
                    OFFSET -2.885654 0.293261 -0.119232
                    CHANNELS 3 Zrotation Yrotation Xrotation
                    JOINT RightHandRing2
                    {
                      OFFSET -6.032835 -1e-06 -4e-06
                      CHANNELS 3 Zrotation Yrotation Xrotation
                      JOINT RightHandRing3
                      {
                        OFFSET -4.33881 0.0 -4e-06
                        CHANNELS 3 Zrotation Yrotation Xrotation
                        JOINT RightHandRing4
                        {
                          OFFSET -2.654903 -4e-06 -4e-06
                          CHANNELS 3 Zrotation Yrotation Xrotation
                          JOINT RightHandRingEnd
                          {
                            OFFSET -1.935122 0.0 4e-06
                            CHANNELS 3 Zrotation Yrotation Xrotation
                          }
                        }
                      }
                    }
                  }
                  JOINT RightHandPinky1
                  {
                    OFFSET -2.866241 1.503904 -0.60527
                    CHANNELS 3 Zrotation Yrotation Xrotation
                    JOINT RightHandPinky2
                    {
                      OFFSET -5.553177 -2e-06 0.0
                      CHANNELS 3 Zrotation Yrotation Xrotation
                      JOINT RightHandPinky3
                      {
                        OFFSET -3.062664 -1e-06 -4e-06
                        CHANNELS 3 Zrotation Yrotation Xrotation
                        JOINT RightHandPinky4
                        {
                          OFFSET -1.546529 2e-06 4e-06
                          CHANNELS 3 Zrotation Yrotation Xrotation
                          JOINT RightHandPinkyEnd
                          {
                            OFFSET -1.952341 0.0 -4e-06
                            CHANNELS 3 Zrotation Yrotation Xrotation
                          }
                        }
                      }
                    }
                  }
                }
              }
            }
          }
        }
      }
    }
    JOINT LeftLeg
    {
      OFFSET -8.443107 2.567604 10.043214
      CHANNELS 3 Zrotation Yrotation Xrotation
      JOINT LeftShin
      {
        OFFSET 43.229198 1e-06 -1e-06
        CHANNELS 3 Zrotation Yrotation Xrotation
        JOINT LeftFoot
        {
          OFFSET 42.298611 1e-06 1e-06
          CHANNELS 3 Zrotation Yrotation Xrotation
          JOINT LeftToeBase
          {
            OFFSET 14.165858 1e-06 0.0
            CHANNELS 3 Zrotation Yrotation Xrotation
            JOINT LeftToeEnd
            {
              OFFSET 6.7141 -0.234461 0.0
              CHANNELS 3 Zrotation Yrotation Xrotation
            }
          }
        }
      }
    }
    JOINT RightLeg
    {
      OFFSET -8.303923 2.592729 -10.047278
      CHANNELS 3 Zrotation Yrotation Xrotation
      JOINT RightShin
      {
        OFFSET -43.369682 0.0 1e-06
        CHANNELS 3 Zrotation Yrotation Xrotation
        JOINT RightFoot
        {
          OFFSET -42.260784 4e-06 2e-06
          CHANNELS 3 Zrotation Yrotation Xrotation
          JOINT RightToeBase
          {
            OFFSET -14.222245 -2e-06 -1e-06
            CHANNELS 3 Zrotation Yrotation Xrotation
            JOINT RightToeEnd
            {
              OFFSET -6.660062 0.232574 -2e-06
              CHANNELS 3 Zrotation Yrotation Xrotation
            }
          }
        }
      }
    }
  }
}
MOTION
Frames: 4
Frame Time: 0.03333333333333333
0.0 0.0 0.0 0.0 -0.0 0.0 3.175576 86.33213 0.399133 94.473938 -1.412008 90.688316 2.903935 -1.497681 0.041652 -9.569381 -0.667889 0.316985 16.931932 -2.810351 -2.432928 14.185203 -1.06663 2.754783 -2.506875 -0.828403 3.39612 -37.019184 0.874156 4.08575 5e-06 0.0 1e-06 -0.022474 0.020486 -0.088462 0.117779 0.047887 -0.105462 0.136283 -0.016276 -0.057557 -136.711517 -78.88575 154.497467 28.956993 -37.091225 -43.540962 17.12578 0.053543 -0.082972 -2.796824 4.692452 -33.158752 17.636631 -26.322725 52.41119 -19.46666 -14.395594 29.410389 0.0 -8.774819 -1e-06 15.296759 -18.108252 7.134992 -0.609774 -1.795654 -3.889328 -4.807087 -11.046809 -2.937852 2e-06 -20.976015 1e-06 -5.019972 -25.033556 -4.031881 5e-06 -0.0 1e-06 -10.634535 -5.686972 -3.565589 10.573275 -17.922947 -3.113901 2e-06 -13.821211 1e-06 -0.501778 -31.181505 -4.02702 -12.567606 -60.989368 8.625031 -13.982716 -7.1502 -2.875045 13.772727 -8.40149 -3.218241 0.347733 -34.211544 0.771652 -0.963032 -17.73337 2.621019 0.0 0.0 -1e-06 -17.346416 -20.095217 -4.201782 21.757555 -1.638375 3.866427 1e-06 -6.338823 2e-06 -1.69759 -22.591743 -6.194009 -1e-06 -5e-06 -2e-06 91.493187 -84.192757 104.010605 39.857056 -44.771042 -41.144463 27.763182 -1.320063 -0.125979 -5.271261 13.623385 -19.567728 22.182121 -20.375889 49.933315 -16.701818 -16.743528 28.47653 -2e-06 -12.690602 -1e-06 15.552463 -17.999031 2.892254 -0.105921 -1.513859 -4.275879 -5.039039 -5.612871 -2.953558 2e-06 -11.020527 -3e-06 -6.111297 -15.895336 -3.840472 1e-06 -0.0 2e-06 -10.283372 -5.68029 -4.341837 11.028296 -11.302406 -2.372634 -1.384271 -14.238583 -6.320123 -0.625439 -26.924191 -3.827603 -4.905719 -50.28297 -2.931585 -13.708524 -7.363478 -3.72094 18.141148 -14.05274 -3.242672 5e-06 -18.787271 -3e-06 -0.429709 -8.456045 2.555503 1e-06 -0.0 -0.0 -15.923536 -20.094486 -5.473586 30.41921 -7.190826 1.735928 1e-06 -8.162927 -1e-06 -1.861897 -22.861473 -6.167948 0.0 -3e-06 -1e-06 150.262436 0.117557 -11.22365 66.489334 0.181431 -0.265605 -105.225166 -16.06885 -4.62641 -3.243154 1.543381 2.223459 -0.999999 -0.0 -0.0 -32.93512 -9.333075 -3.392902 76.339485 0.443653 -0.375709 -98.094582 -10.698574 -9.119707 -10.562171 0.917245 1.668091 -1.000002 -0.0 -0.0 
0.0 0.0 0.0 0.0 -0.0 0.0 3.249902 87.112625 0.670384 94.353249 -1.610323 89.669235 2.852351 -1.420442 0.111109 -9.625604 -0.673925 0.287487 16.626307 -2.498216 -2.465988 14.356746 -0.847744 2.887138 -2.519122 -0.768878 3.649726 -36.603481 0.864277 4.690929 5e-06 -0.0 0.0 -0.025202 0.012989 -0.108244 0.07742 0.027607 -0.125347 0.100473 -0.009469 -0.074854 -124.803909 -80.668579 141.611755 25.659895 -34.568993 -47.351578 18.144773 0.372455 -0.148458 -4.897615 8.814844 -39.13797 17.636631 -26.322725 52.411186 -19.466665 -14.395598 29.410393 3e-06 -8.774824 -4e-06 15.55648 -18.125626 6.80277 -0.609777 -1.795654 -3.889328 -4.807088 -11.046811 -2.93785 1e-06 -20.976017 -2e-06 -5.019974 -25.033556 -4.031882 6e-06 2e-06 0.0 -10.634537 -5.686971 -3.565587 10.573278 -17.922951 -3.113901 3e-06 -13.821211 -0.0 -0.501781 -31.181511 -4.027019 -12.879139 -61.510555 8.677088 -13.982718 -7.1502 -2.87504 13.772732 -8.401491 -3.21824 0.347731 -34.211555 0.771654 -0.963032 -17.73337 2.621019 0.0 -0.0 1e-06 -17.346424 -20.095222 -4.20178 21.757561 -1.638375 3.86643 3e-06 -6.338823 0.0 -1.697592 -22.591743 -6.194009 -1e-06 -3e-06 -2e-06 109.439316 -84.312454 85.277641 37.258221 -40.172729 -43.348812 26.657673 -1.174099 -0.167231 -5.911534 14.294971 -21.904524 22.182114 -20.375895 49.933327 -16.701817 -16.743532 28.47654 -3e-06 -12.690603 -1e-06 15.510324 -17.849651 2.91466 -0.10592 -1.513857 -4.275884 -5.039044 -5.612871 -2.953555 7e-06 -11.020523 -5e-06 -6.111301 -15.895334 -3.840472 -2e-06 -0.0 1e-06 -10.283373 -5.680291 -4.341842 11.028294 -11.302406 -2.372634 -1.384269 -14.238582 -6.320123 -0.625438 -26.924185 -3.827605 -4.82082 -50.502522 -2.89428 -13.708529 -7.363479 -3.720938 18.141151 -14.052738 -3.242674 5e-06 -18.78727 -3e-06 -0.429712 -8.456045 2.555504 1e-06 -0.0 -0.0 -15.923539 -20.09449 -5.473588 30.419218 -7.190823 1.735924 4e-06 -8.162927 -1e-06 -1.861906 -22.861469 -6.167943 1e-06 -3e-06 -1e-06 151.113098 -0.459343 -12.184668 64.981087 0.220922 -0.258563 -103.979645 -16.313179 -4.860475 -3.257707 1.519123 2.215508 -1.0 2e-06 0.0 -32.473255 -9.043329 -3.18714 74.780907 0.511009 -0.41573 -96.884003 -10.392588 -9.255802 -10.497199 0.928549 1.678891 -1.000004 1e-06 -0.0 
0.0 0.0 0.0 0.0 -0.0 0.0 3.331576 88.608406 1.081951 94.109612 -1.909906 88.719948 2.595868 -1.234352 0.161518 -9.803232 -0.705791 0.260907 16.128206 -2.07336 -2.489244 14.881447 -0.578941 3.00751 -2.490055 -0.711063 3.874075 -35.978161 0.765636 5.29752 7e-06 -0.0 0.0 -0.028156 0.011797 -0.10609 0.009841 0.014364 -0.126351 0.028767 0.003744 -0.066151 -105.627068 -81.837357 121.337372 22.526554 -30.997854 -50.102982 19.44772 0.485425 -0.202194 -7.068529 12.771045 -42.279564 17.636639 -26.322737 52.411201 -19.466665 -14.3956 29.410395 1e-06 -8.774824 -2e-06 15.777094 -17.997242 6.219298 -0.609778 -1.795655 -3.889327 -4.807087 -11.046811 -2.93785 5e-06 -20.976019 -1e-06 -5.01997 -25.03356 -4.031879 5e-06 -1e-06 -1e-06 -10.634535 -5.686972 -3.565589 10.573275 -17.922951 -3.113902 3e-06 -13.821211 2e-06 -0.501776 -31.181505 -4.027015 -12.556118 -61.380768 8.143993 -13.982716 -7.150198 -2.875043 13.772728 -8.401493 -3.218242 0.347734 -34.211555 0.771657 -0.963029 -17.733372 2.621019 -0.0 0.0 1e-06 -17.34642 -20.095221 -4.201783 21.757561 -1.638378 3.866431 1e-06 -6.338823 1e-06 -1.697585 -22.591743 -6.194009 -2e-06 -4e-06 -4e-06 128.623322 -83.982658 65.342232 34.310524 -34.515602 -44.966488 24.429516 -0.818391 -0.18683 -6.683603 14.781839 -24.737469 22.182117 -20.375898 49.933319 -16.701813 -16.743528 28.476532 -2e-06 -12.6906 -1e-06 15.328596 -17.74765 2.984 -0.105919 -1.513857 -4.275881 -5.039042 -5.612871 -2.953556 5e-06 -11.020524 -2e-06 -6.111297 -15.895332 -3.840471 -1e-06 0.0 -1e-06 -10.283373 -5.68029 -4.341835 11.028297 -11.302404 -2.372633 -1.384269 -14.238583 -6.32012 -0.625436 -26.924194 -3.8276 -4.586097 -50.60601 -3.081006 -13.708527 -7.363478 -3.720938 18.141151 -14.052739 -3.242676 7e-06 -18.78727 -2e-06 -0.429709 -8.456042 2.555503 2e-06 0.0 1e-06 -15.923534 -20.094486 -5.473582 30.41921 -7.190826 1.735924 2e-06 -8.162927 0.0 -1.861899 -22.861473 -6.167945 2e-06 -3e-06 -1e-06 152.878098 -0.985243 -13.241302 61.514523 0.256966 -0.279524 -101.987732 -16.526951 -5.047257 -3.379329 1.491925 2.187853 -0.999999 2e-06 -0.0 -31.131124 -8.463806 -3.023249 71.36058 0.585674 -0.478276 -95.036118 -10.532332 -9.520946 -9.714276 0.882564 1.703066 -1.000003 1e-06 0.0 
0.0 0.0 0.0 0.0 -0.0 0.0 3.337976 90.832008 1.642873 93.77697 -2.220553 87.878189 2.131217 -1.015471 0.176313 -10.029148 -0.71642 0.223627 15.470573 -1.524721 -2.461913 15.728801 -0.429982 3.026376 -2.555531 -0.587612 4.10557 -35.004913 0.649217 5.692773 6e-06 -0.0 -0.0 -0.022699 0.005148 -0.097988 -0.011488 0.004077 -0.112721 0.014218 0.002223 -0.060467 -83.838249 -81.878487 98.37265 19.662289 -26.260769 -52.059048 20.389019 0.411082 -0.208349 -8.836113 16.369831 -42.066994 17.636627 -26.322721 52.411179 -19.466658 -14.395596 29.410381 0.0 -8.774821 -3e-06 15.726625 -17.924055 5.724026 -0.609776 -1.795653 -3.889327 -4.80709 -11.046807 -2.93785 3e-06 -20.976015 -1e-06 -5.019969 -25.033546 -4.031883 6e-06 0.0 -0.0 -10.634533 -5.686968 -3.565587 10.573271 -17.922945 -3.1139 3e-06 -13.821204 0.0 -0.501778 -31.181494 -4.027015 -12.007868 -60.900951 7.554777 -13.982714 -7.150198 -2.875042 13.772727 -8.40149 -3.218239 0.347733 -34.21154 0.771655 -0.963028 -17.733366 2.621018 -1e-06 -0.0 0.0 -17.346416 -20.095213 -4.201784 21.757555 -1.638375 3.866429 1e-06 -6.33882 0.0 -1.69759 -22.591743 -6.194005 1e-06 -3e-06 -2e-06 145.362076 -83.093346 47.784492 31.414196 -28.126133 -46.068264 21.064423 -0.307241 -0.041682 -7.435009 15.052742 -27.153709 22.182117 -20.375889 49.933311 -16.701813 -16.743528 28.476528 -2e-06 -12.690603 -1e-06 15.1223 -17.694641 3.080913 -0.10592 -1.513857 -4.275882 -5.039041 -5.612871 -2.953557 3e-06 -11.020519 -2e-06 -6.111298 -15.89533 -3.840471 1e-06 -1e-06 -1e-06 -10.283371 -5.680289 -4.341836 11.028294 -11.302402 -2.372634 -1.384271 -14.238579 -6.320118 -0.625438 -26.924179 -3.827605 -4.345252 -50.543072 -3.174312 -13.708524 -7.363477 -3.720939 18.141146 -14.052734 -3.242674 6e-06 -18.787264 -2e-06 -0.429709 -8.45604 2.555503 1e-06 -0.0 -0.0 -15.923536 -20.094482 -5.473584 30.41921 -7.190821 1.735927 4e-06 -8.162925 -0.0 -1.861902 -22.861467 -6.167944 -0.0 -4e-06 -1e-06 155.655655 -1.431684 -14.51174 56.088524 0.229043 -0.263673 -98.61274 -16.518677 -5.452885 -3.561249 1.4354 2.156286 -1.0 1e-06 0.0 -28.594261 -7.640164 -3.059824 65.678886 0.606136 -0.512854 -92.676796 -10.876799 -9.562047 -9.08028 0.874029 1.71869 -1.000002 1e-06 1e-06 
